<svg xmlns="http://www.w3.org/2000/svg" viewBox="0 0 1741.58 288" width="1741.58" height="288" style="--bg:#0d1117;--fg:#e6edf3;--line:#3d444d;--accent:#4493f8;--muted:#9198a1;background:var(--bg)">
<style>
  @import url('https://fonts.googleapis.com/css2?family=Inter:wght@400;500;600;700&amp;display=swap');
  text { font-family: 'Inter', system-ui, sans-serif; }
  svg {
    /* Derived from --bg and --fg (overridable via --line, --accent, etc.) */
    --_text:          var(--fg);
    --_text-sec:      var(--muted, color-mix(in srgb, var(--fg) 60%, var(--bg)));
    --_text-muted:    var(--muted, color-mix(in srgb, var(--fg) 40%, var(--bg)));
    --_text-faint:    color-mix(in srgb, var(--fg) 25%, var(--bg));
    --_line:          var(--line, color-mix(in srgb, var(--fg) 30%, var(--bg)));
    --_arrow:         var(--accent, color-mix(in srgb, var(--fg) 50%, var(--bg)));
    --_node-fill:     var(--surface, color-mix(in srgb, var(--fg) 3%, var(--bg)));
    --_node-stroke:   var(--border, color-mix(in srgb, var(--fg) 20%, var(--bg)));
    --_group-fill:    var(--bg);
    --_group-hdr:     color-mix(in srgb, var(--fg) 5%, var(--bg));
    --_inner-stroke:  color-mix(in srgb, var(--fg) 12%, var(--bg));
    --_key-badge:     color-mix(in srgb, var(--fg) 10%, var(--bg));
  }
</style>
<defs>
  <marker id="arrowhead" markerWidth="8" markerHeight="4.8" refX="8" refY="2.4" orient="auto">
    <polygon points="0 0, 8 2.4, 0 4.8" fill="var(--_arrow)" />
  </marker>
  <marker id="arrowhead-start" markerWidth="8" markerHeight="4.8" refX="0" refY="2.4" orient="auto-start-reverse">
    <polygon points="8 0, 0 2.4, 8 4.8" fill="var(--_arrow)" />
  </marker>
</defs>
<rect x="75.14999999999998" y="40" width="513.25" height="96" rx="0" ry="0" fill="var(--_group-fill)" stroke="var(--_node-stroke)" stroke-width="1" />
<rect x="75.14999999999998" y="40" width="513.25" height="28" rx="0" ry="0" fill="var(--_group-hdr)" stroke="var(--_node-stroke)" stroke-width="1" />
<text x="87.14999999999998" y="54" dy="0.35em" font-size="12" font-weight="600" fill="var(--_text-sec)">&quot;AI Agent Context&quot;</text>
<rect x="40" y="124" width="583.55" height="96" rx="0" ry="0" fill="var(--_group-fill)" stroke="var(--_node-stroke)" stroke-width="1" />
<rect x="40" y="124" width="583.55" height="28" rx="0" ry="0" fill="var(--_group-hdr)" stroke="var(--_node-stroke)" stroke-width="1" />
<text x="52" y="138" dy="0.35em" font-size="12" font-weight="600" fill="var(--_text-sec)">&quot;Backend Contract&quot;</text>
<rect x="860.23" y="82" width="562.1" height="96" rx="0" ry="0" fill="var(--_group-fill)" stroke="var(--_node-stroke)" stroke-width="1" />
<rect x="860.23" y="82" width="562.1" height="28" rx="0" ry="0" fill="var(--_group-hdr)" stroke="var(--_node-stroke)" stroke-width="1" />
<text x="872.23" y="96" dy="0.35em" font-size="12" font-weight="600" fill="var(--_text-sec)">&quot;AI Generated Code&quot;</text>
<rect x="1522.33" y="72" width="179.25" height="176" rx="0" ry="0" fill="var(--_group-fill)" stroke="var(--_node-stroke)" stroke-width="1" />
<rect x="1522.33" y="72" width="179.25" height="28" rx="0" ry="0" fill="var(--_group-hdr)" stroke="var(--_node-stroke)" stroke-width="1" />
<text x="1534.33" y="86" dy="0.35em" font-size="12" font-weight="600" fill="var(--_text-sec)">&quot;Result&quot;</text>
<polyline points="588.4,106 1141.28,106 1141.28,118" fill="none" stroke="var(--_line)" stroke-width="0.75" marker-end="url(#arrowhead)" />
<polyline points="623.55,190 1141.28,190 1141.28,178" fill="none" stroke="var(--_line)" stroke-width="0.75" stroke-dasharray="4 4" marker-end="url(#arrowhead)" />
<polyline points="1422.33,148 1549.48,148" fill="none" stroke="var(--_line)" stroke-width="0.75" marker-end="url(#arrowhead)" />
<rect x="679.55" y="176.5" width="124.68" height="27" rx="4" ry="4" fill="var(--bg)" stroke="var(--_inner-stroke)" stroke-width="0.5" />
<text x="741.89" y="190" text-anchor="middle" dy="0.35em" font-size="11" font-weight="400" fill="var(--_text-muted)">&quot;Name&lt;br/&gt;Mismatch&quot;</text>
<rect x="1549.48" y="130" width="124.95" height="36" rx="0" ry="0" fill="#3fb950" stroke="#3fb950" stroke-width="0.75" />
<rect x="1542.33" y="190" width="139.25" height="36" rx="0" ry="0" fill="#f85149" stroke="#f85149" stroke-width="0.75" />
<rect x="91.14999999999999" y="88" width="232.20000000000002" height="36" rx="0" ry="0" fill="#f85149" stroke="#f85149" stroke-width="0.75" />
<rect x="347.35" y="88" width="225.05" height="36" rx="0" ry="0" fill="#f85149" stroke="#f85149" stroke-width="0.75" />
<rect x="55.99999999999997" y="172" width="153.55" height="36" rx="0" ry="0" fill="#3fb950" stroke="#3fb950" stroke-width="0.75" />
<rect x="233.55" y="172" width="182.15" height="36" rx="0" ry="0" fill="#3fb950" stroke="#3fb950" stroke-width="0.75" />
<rect x="439.7" y="172" width="167.85000000000002" height="36" rx="0" ry="0" fill="#3fb950" stroke="#3fb950" stroke-width="0.75" />
<rect x="876.23" y="130" width="153.55" height="36" rx="0" ry="0" fill="#f0883e" stroke="#f0883e" stroke-width="0.75" />
<rect x="1053.78" y="130" width="167.85000000000002" height="36" rx="0" ry="0" fill="#f0883e" stroke="#f0883e" stroke-width="0.75" />
<rect x="1245.63" y="130" width="160.70000000000002" height="36" rx="0" ry="0" fill="#f0883e" stroke="#f0883e" stroke-width="0.75" />
<text x="1611.955" y="148" text-anchor="middle" dy="0.35em" font-size="13" font-weight="500" fill="var(--_text)">&quot;Compiles OK&quot;</text>
<text x="1611.955" y="208" text-anchor="middle" dy="0.35em" font-size="13" font-weight="500" fill="var(--_text)">&quot;Runtime Error&quot;</text>
<text x="207.25" y="106" text-anchor="middle" dy="0.35em" font-size="13" font-weight="500" fill="var(--_text)">&quot;Limited&lt;br/&gt;Context Window&quot;</text>
<text x="459.875" y="106" text-anchor="middle" dy="0.35em" font-size="13" font-weight="500" fill="var(--_text)">&quot;No Backend&lt;br/&gt;Visibility&quot;</text>
<text x="132.77499999999998" y="190" text-anchor="middle" dy="0.35em" font-size="13" font-weight="500" fill="var(--_text)">&quot;getUserById(id)&quot;</text>
<text x="324.625" y="190" text-anchor="middle" dy="0.35em" font-size="13" font-weight="500" fill="var(--_text)">&quot;CreateUserDTO.email&quot;</text>
<text x="523.625" y="190" text-anchor="middle" dy="0.35em" font-size="13" font-weight="500" fill="var(--_text)">&quot;Order.totalAmount&quot;</text>
<text x="953.005" y="148" text-anchor="middle" dy="0.35em" font-size="13" font-weight="500" fill="var(--_text)">&quot;getUser(userId)&quot;</text>
<text x="1137.705" y="148" text-anchor="middle" dy="0.35em" font-size="13" font-weight="500" fill="var(--_text)">&quot;payload.userEmail&quot;</text>
<text x="1325.98" y="148" text-anchor="middle" dy="0.35em" font-size="13" font-weight="500" fill="var(--_text)">&quot;order.totalPrice&quot;</text>
</svg>